PathFileType	4	(X/Y/Z)	63_1_51_p1_0-226.trc
DataRate	CameraRate	NumFrames	NumMarkers	Units	OrigDataRate	OrigDataStartFrame	OrigNumFrames
60.0	60.0	6	27	m	60.0	113	227
Frame#	Time	RHip			RKnee			RAnkle			RBigToe			RSmallToe			RHeel			LHip			LKnee			LAnkle			LBigToe			LSmallToe			LHeel			Neck			Head			Nose			RShoulder			RElbow			RWrist			RThumb			RIndex			RPinky			LShoulder			LElbow			LWrist			LThumb			LIndex			LPinky			
		X1	Y1	Z1	X2	Y2	Z2	X3	Y3	Z3	X4	Y4	Z4	X5	Y5	Z5	X6	Y6	Z6	X7	Y7	Z7	X8	Y8	Z8	X9	Y9	Z9	X10	Y10	Z10	X11	Y11	Z11	X12	Y12	Z12	X13	Y13	Z13	X14	Y14	Z14	X15	Y15	Z15	X16	Y16	Z16	X17	Y17	Z17	X18	Y18	Z18	X19	Y19	Z19	X20	Y20	Z20	X21	Y21	Z21	X22	Y22	Z22	X23	Y23	Z23	X24	Y24	Z24	X25	Y25	Z25	X26	Y26	Z26	X27	Y27	Z27	
113	1.8833333333333333	0.3043364149997627	0.5846442029946635	0.6800507860708168	0.33543491135583536	0.7280765011167795	1.1340235829697518	0.3478890958740706	0.8336769991401715	1.5708218625009607	0.27885354543453217	0.6173119227288065	1.6038640727629894	0.3525778305895839	0.6367503883276191	1.5952531946681372	0.33988160860542715	0.9329341142328628	1.6277770775047664	0.08181769660260366	0.5901585708619651	0.692704868785761	0.09862789375491751	0.7249006934560631	1.1345344532585957	0.13487590602265698	0.8755413781047029	1.5739361399248515	0.130839562578063	0.6564303619408313	1.599521667992539	0.08455065970133087	0.7311039368335595	1.6066660384667968	0.1682539667002407	0.9334652490812705	1.6240880515296543	0.19595812717228853	0.3402922107908376	0.1750921634484452	0.2046432389192608	0.18965254744344126	-0.037742010382291934	0.1729211349777243	0.1808736087872621	0.10963989443902299	0.3393762532579516	0.3684998549440315	0.24030749715998134	0.3856413438223962	0.5273102796771179	0.4443457033082594	0.31836054305832673	0.29583164697606845	0.5350000669196547	0.26078782413667	0.1417734600848152	0.5157188880966735	0.27094788743674014	0.12603271979331857	0.5445872108898361	0.29024756477196345	0.19511302529352634	0.5833153446870419	0.027010836952713956	0.38570946682529006	0.2155420162174676	0.0076722720682280915	0.45290320653042104	0.4353586359189941	0.07345042874936025	0.24956035459239867	0.5050124187272613	0.12137490618568803	0.1408879329071659	0.48220587402286125	0.09933717168812925	0.06322480672994281	0.494425855759184	0.11055622144858855	0.18470103322377823	0.5364948161981282
114	1.9	0.3046074002583957	0.5831612048475352	0.6762943162597173	0.3358801289506976	0.7279016715322184	1.1377548396032273	0.34784329700300176	0.8336047435882247	1.5709185719452468	0.2795981864975461	0.6155740449160583	1.5994082319528617	0.3525856032549327	0.6370262814034242	1.5952984301969821	0.3413972104025312	0.9361834236828595	1.6336108563671619	0.08180936853295229	0.5901309133912207	0.6926489637895457	0.0985739926375277	0.7250146270181325	1.1346026576547987	0.13479688980529775	0.8756482333768891	1.5739022854492861	0.13078755399831024	0.6562912433348131	1.5994135365735265	0.08406384837456095	0.7320681350491254	1.6027350057548202	0.16304012488910677	0.9299630952106482	1.623082377532644	0.19584345578740794	0.3398853948703435	0.17527068256219133	0.2121195475191239	0.179024081788767	-0.03564861207524434	0.18016806489797293	0.16993715442062846	0.11093102935746038	0.33958898987093106	0.36845657642398916	0.24046918720682922	0.3856923484855641	0.527080516754932	0.44220320735653057	0.31861038616442705	0.29578416171445737	0.5385555642030447	0.2608092424142683	0.14193830241660088	0.5156889781784868	0.2711853826049089	0.1257167631120033	0.5480618505225582	0.29002960824488117	0.19479158055561488	0.5834392973920021	0.026926200477045574	0.3856050147769458	0.21178090974636501	0.01092298537233706	0.46359014358018386	0.4310187771739314	0.07345055674874662	0.24981611873604373	0.504918048459159	0.11868506674780664	0.15074626749507253	0.4755134871488896	0.09936904606285683	0.05512169226878053	0.4951263065707289	0.10714615135067479	0.18308278751462262	0.539966646953445
115	1.9166666666666667	0.301501552398559	0.5991752941747034	0.6805491511906787	0.3307339318919404	0.7141890116730324	1.1357597199689489	0.3478655732059132	0.833557730910577	1.5712029327872996	0.2793943712297747	0.612817884821796	1.60280067037534	0.35224106901450314	0.6365345756856104	1.5954069437683611	0.34144801604150476	0.9362093213591463	1.633858617064601	0.08174999466364191	0.5902623009650828	0.6926418175442536	0.0984814321736703	0.7251934050192097	1.1346864400902243	0.1302942075351964	0.8738798805257993	1.5735038060505135	0.1307417118919793	0.6559376839040236	1.5992856919510527	0.08393691633682868	0.731485354414216	1.602596660306387	0.15716168505428982	0.9155314368515732	1.6241169424985462	0.1959759224051108	0.33997896839257497	0.17516582456329705	0.2238496577861801	0.189688778229783	-0.03899149823767776	0.18329651421560042	0.15851833621245914	0.11250078411589647	0.33959265145080303	0.3682178557781796	0.2405808031427903	0.3860545336913349	0.5265157791931754	0.4463420461154539	0.318775210418003	0.2959482291768674	0.5386515608409808	0.26492153278769875	0.1421498898895067	0.5189615541900516	0.2722088692113344	0.12768442400050337	0.5516314408515088	0.29174884408195495	0.21699211890419803	0.5869718554451941	0.03008106920122327	0.3960204952572702	0.2065894787171733	0.010620443818822153	0.4642861488580087	0.430032312769478	0.07675338983321334	0.26047041227027623	0.5043243041832494	0.1290079911238828	0.15184577904263347	0.48120237708237196	0.1030103534593717	0.0643351053935237	0.4944365875483938	0.10629097985744863	0.18126967525314586	0.5372253952874279
116	1.9333333333333333	0.301376685694793	0.5992836559698507	0.6805455876498342	0.33581057388965	0.7278095918921559	1.1378784840078313	0.3482496897120657	0.8330917143627293	1.5749610846302329	0.2837240718131707	0.6263088066735493	1.606963711054216	0.35697988293602856	0.6501635233398597	1.5996306674913876	0.3355698222963521	0.9321944751654597	1.6280324532431119	0.08162625480942558	0.5903272675346849	0.6925828966019457	0.09876519852798266	0.7247281736272235	1.1388039234531941	0.13017138286183463	0.8740296218580731	1.573610764622127	0.13069965462011585	0.6560856773644189	1.5994964083504182	0.08411915824165751	0.7304969428500188	1.606726347130128	0.1533159873343506	0.9338634276148271	1.6297456470558658	0.19607432209682557	0.3397097618533935	0.17522169762109224	0.22797775540622345	0.18930791791843896	-0.03924903464494528	0.18748441147554282	0.15927531978060205	0.1117892082450648	0.33985951483254523	0.3679549495628311	0.24064374032474442	0.3894546538573143	0.5163591956665402	0.456154068100838	0.32442213338902254	0.3090312648336927	0.5454342062888514	0.2690253441314037	0.14190242810317452	0.522297879376888	0.2778852586996892	0.13053132180755814	0.5585708596277951	0.2986462865888006	0.2199201244951335	0.5907723960872672	0.030136639865264398	0.39584523396568155	0.20644289517830794	0.005821736426844601	0.46103329670030946	0.4264806307679255	0.07667404177475667	0.2606139436220305	0.5043492040934809	0.12985904735420126	0.15342573496110276	0.4882979065796987	0.10313574094337606	0.06556217307126713	0.5005960054273328	0.10676440388780901	0.18306831683168426	0.540718756256294
117	1.95	0.30133493497364294	0.5991397446226386	0.6804781568586801	0.3357073781446701	0.7278030751568607	1.1378358201905607	0.34820600139537655	0.8329734485153549	1.5748215981454723	0.2840159732800804	0.626937866983746	1.6070456731935236	0.35710894054171094	0.650224907876263	1.5995639012061382	0.3398653839132129	0.9331051966543694	1.6279164569818245	0.0808381123087288	0.587952073049867	0.6883197775616497	0.0982998471564927	0.7251761879175775	1.1348110170580212	0.13052422934018765	0.8732663457212999	1.5774630972011003	0.13068526841508166	0.6560701805385397	1.5995636496859236	0.08397627156037005	0.7302908672429519	1.6067866891593403	0.15320731563899595	0.9344340724552679	1.6300421372936338	0.1962898175365061	0.33920870500940214	0.17545216272578046	0.2317579921390081	0.18802236782390483	-0.04212968883005834	0.19056897263526645	0.14798482876855196	0.11364285851085526	0.339927524302505	0.36771639531262035	0.24076375994589921	0.38966244428340907	0.5169825364299018	0.46076131384469937	0.3243263611990724	0.309139923097722	0.5452796276558524	0.27394127178783856	0.14417726762248073	0.5290964091824588	0.2827253070671386	0.13138172068419215	0.56196304355629	0.29838104142829347	0.22108464879556813	0.5940063126096923	0.03421031479265491	0.3967243661116758	0.20612977352812525	0.00552348051893764	0.46086640568103526	0.42631151439450055	0.07670536745145493	0.26097532933684514	0.5043731588980408	0.13271490071807318	0.16477701131988454	0.4877292068552313	0.10713311702780784	0.08986314773462699	0.5092489183320429	0.10690047173926916	0.18518047353834827	0.5443858902690668
118	1.9666666666666666	0.3012896268166313	0.5992507976496927	0.6805444141969849	0.3309625362164824	0.7136907789980225	1.1395871280422438	0.3481571321797932	0.832688766719178	1.5748906727735759	0.2842003174941587	0.6263031388355577	1.6068816548528064	0.35717893942844475	0.64979053756842	1.599610770870168	0.33988007379702645	0.9329251851118917	1.6279140986932876	0.0815762952298159	0.590303740695571	0.6925904388192986	0.0986358646841646	0.7245252393681014	1.1385824350953588	0.13046396390886028	0.8731837986997454	1.577750290469879	0.131062735624097	0.65478694408453	1.6036418679866704	0.08374142197394473	0.7296457524737516	1.6067287774053394	0.14873100236410797	0.9301436404096837	1.6332614438117352	0.1964791632058691	0.3394149647485585	0.1753221825641173	0.2320257326532199	0.18798074228231604	-0.042178094917715014	0.19069414774249757	0.14797648983551404	0.11353511287123237	0.33992903649179845	0.36770729543165087	0.24090506861687205	0.3903750829551528	0.5161981885535062	0.4642928216238911	0.31762637698147117	0.31079351241696945	0.5495788610581648	0.27001393524719575	0.14376171525829406	0.5293930321838087	0.2819101088618161	0.14337868573162116	0.5647113957061515	0.2985338389366451	0.2214613573643332	0.594514759950184	0.03403848933147386	0.3967503284811629	0.20635333579762707	0.0050530723837657774	0.46169261277134693	0.4299745113582747	0.07672157227040402	0.26050471725520985	0.5045322619317358	0.1365675202772184	0.15601821554103537	0.49808530115455807	0.1100971269740534	0.07975037649127052	0.5095601379650957	0.10457971986954982	0.19893094303523498	0.5518222591261318
